<svg width="24" height="24" viewBox="0 0 24 24" fill="none" xmlns="http://www.w3.org/2000/svg">
<path d="M12.8572 17.1423V10.2852H9.42868V11.9994H11.143V17.1423H8.57153V18.8566H15.4287V17.1423H12.8572Z" fill="white"/>
<path d="M12.0001 5.14258C11.7458 5.14258 11.4972 5.21798 11.2858 5.35926C11.0743 5.50054 10.9095 5.70134 10.8122 5.93627C10.7149 6.1712 10.6895 6.42972 10.7391 6.67912C10.7887 6.92853 10.9111 7.15762 11.0909 7.33743C11.2707 7.51724 11.4998 7.63969 11.7492 7.6893C11.9986 7.73891 12.2572 7.71345 12.4921 7.61614C12.727 7.51882 12.9278 7.35403 13.0691 7.1426C13.2104 6.93116 13.2858 6.68258 13.2858 6.42829C13.2858 6.0873 13.1503 5.76027 12.9092 5.51915C12.6681 5.27804 12.3411 5.14258 12.0001 5.14258Z" fill="white"/>
<path d="M12 24C9.62663 24 7.30655 23.2962 5.33316 21.9776C3.35977 20.6591 1.8217 18.7849 0.913451 16.5922C0.00519937 14.3995 -0.232441 11.9867 0.230582 9.65892C0.693605 7.33115 1.83649 5.19295 3.51472 3.51472C5.19295 1.83649 7.33115 0.693605 9.65892 0.230582C11.9867 -0.232441 14.3995 0.00519937 16.5922 0.913451C18.7849 1.8217 20.6591 3.35977 21.9776 5.33316C23.2962 7.30655 24 9.62663 24 12C24 15.1826 22.7357 18.2348 20.4853 20.4853C18.2348 22.7357 15.1826 24 12 24ZM12 1.71429C9.96568 1.71429 7.97704 2.31754 6.28557 3.44775C4.59409 4.57795 3.27575 6.18436 2.49724 8.06383C1.71874 9.9433 1.51505 12.0114 1.91193 14.0066C2.3088 16.0019 3.28842 17.8346 4.72691 19.2731C6.16539 20.7116 7.99813 21.6912 9.99336 22.0881C11.9886 22.485 14.0567 22.2813 15.9362 21.5028C17.8156 20.7243 19.4221 19.4059 20.5523 17.7144C21.6825 16.023 22.2857 14.0343 22.2857 12C22.2857 9.27206 21.202 6.65585 19.2731 4.72691C17.3442 2.79796 14.7279 1.71429 12 1.71429Z" fill="white"/>
</svg>
